<?xml version="1.0" standalone="no"?>
<!DOCTYPE svg PUBLIC "-//W3C//DTD SVG 20010904//EN"
 "http://www.w3.org/TR/2001/REC-SVG-20010904/DTD/svg10.dtd">
<svg version="1.0" xmlns="http://www.w3.org/2000/svg"
 width="300.000000pt" height="300.000000pt" viewBox="0 0 224.000000 226.000000"
 preserveAspectRatio="xMidYMid meet">

<g transform="translate(0.000000,226.000000) scale(0.100000,-0.100000)"
fill="#506bfe" stroke="none">
<path d="M450 2195 l0 -35 -185 0 -185 0 0 -90 0 -90 185 0 185 0 0 -35 0 -35
-165 0 -165 0 0 -85 0 -85 165 0 165 0 0 -35 0 -35 -205 0 -205 0 0 -90 0 -90
205 0 205 0 0 -35 0 -35 155 0 155 0 0 35 0 35 165 0 165 0 0 90 0 90 -165 0
-165 0 0 35 0 35 130 0 130 0 0 85 0 85 -130 0 -130 0 0 35 0 35 145 0 145 0
0 90 0 90 -145 0 -145 0 0 35 0 35 -155 0 -155 0 0 -35z"/>
<path d="M1480 2195 l0 -35 -145 0 -145 0 0 -90 0 -90 145 0 145 0 0 -35 0
-35 -130 0 -130 0 0 -85 0 -85 131 0 130 0 -3 -32 -3 -33 -162 -3 -163 -2 0
-90 0 -90 165 0 165 0 0 -35 0 -35 155 0 155 0 0 35 0 35 205 0 205 0 0 90 0
90 -205 0 -205 0 0 35 0 35 165 0 165 0 0 85 0 85 -165 0 -165 0 0 35 0 35
185 0 185 0 0 90 0 90 -185 0 -185 0 0 35 0 35 -155 0 -155 0 0 -35z"/>
<path d="M180 1280 l0 -100 750 0 750 0 0 -40 0 -40 -690 0 -690 0 0 -90 0
-90 690 0 690 0 0 -40 0 -40 -760 0 -760 0 0 -100 0 -100 920 0 920 0 0 370 0
370 -910 0 -910 0 0 -100z"/>
<path d="M246 578 c-30 -104 -74 -165 -156 -218 l-50 -32 0 -149 c0 -96 4
-149 10 -149 24 0 140 55 202 96 152 101 245 253 260 424 l3 35 -133 3 c-101
2 -133 0 -136 -10z"/>
<path d="M580 305 l0 -285 570 0 570 0 0 204 c0 125 -4 206 -10 208 -5 2 -68
2 -139 0 l-130 -3 -3 -82 -3 -82 -277 -3 -278 -2 0 165 0 165 -150 0 -150 0 0
-285z"/>
<path d="M1043 460 l31 -130 153 0 c84 0 153 2 153 5 0 3 -14 62 -31 130 l-31
125 -153 0 -152 0 30 -130z"/>
<path d="M1724 568 c3 -13 7 -43 11 -67 19 -144 123 -292 269 -386 51 -32 165
-85 186 -85 6 0 10 53 10 148 l0 148 -57 40 c-71 49 -111 99 -134 166 l-18 53
-136 3 -136 3 5 -23z"/>
</g>
</svg>
